<svg xmlns="http://www.w3.org/2000/svg" viewBox="0 0 200 200" width="200" height="200">
  <!-- Circle background -->
  <circle cx="100" cy="100" r="90" fill="#9e7a68" />
  
  <!-- Stylized "B" for Blended -->
  <path d="M75 60 C75 60, 90 60, 100 60 C110 60, 120 70, 120 85 C120 95, 115 105, 105 110 C115 115, 125 125, 125 140 C125 155, 115 165, 100 165 C90 165, 75 165, 75 165 Z" 
        fill="white" />
  <path d="M90 80 L90 100 L100 100 C105 100, 105 80, 100 80 Z" fill="#9e7a68" />
  <path d="M90 120 L90 145 L100 145 C110 145, 110 120, 100 120 Z" fill="#9e7a68" />
  
  <!-- Stylized "C" for Circle -->
  <path d="M135 75 C150 90, 150 130, 135 145 C150 130, 150 90, 135 75 Z" fill="white" stroke="white" stroke-width="10" />
</svg>